<?xml version="1.0" encoding="UTF-8" standalone="no"?><!DOCTYPE svg PUBLIC "-//W3C//DTD SVG 1.1//EN" "http://www.w3.org/Graphics/SVG/1.1/DTD/svg11.dtd"><svg width="100%" height="100%" viewBox="0 0 985 1005" version="1.1" xmlns="http://www.w3.org/2000/svg" xmlns:xlink="http://www.w3.org/1999/xlink" xml:space="preserve" xmlns:serif="http://www.serif.com/" style="fill-rule:evenodd;clip-rule:evenodd;stroke-linejoin:round;stroke-miterlimit:2;"><path d="M955.388,533.383c-15.927,242.248 -217.724,434.081 -463.973,434.081c-256.632,0 -464.985,-208.353 -464.985,-464.985c0,-256.632 208.353,-464.985 464.985,-464.985c149.407,-0 282.451,70.619 367.544,180.27l-219.199,-0c-44.124,-24.854 -94.659,-38.973 -148.345,-38.973c-172.068,0 -311.766,145.04 -311.766,323.688c-0,178.648 139.698,323.688 311.766,323.688c162.03,-0 295.356,-128.609 310.361,-292.784l153.612,-0Z" style="fill:#ff4a1c;"/><path d="M858.953,217.764l-0,-0.009c-85.094,-109.646 -218.134,-180.261 -367.538,-180.261c-256.632,-0 -464.985,208.353 -464.985,464.985c0,256.632 208.353,464.985 464.985,464.985c227.641,0 417.294,-163.937 457.239,-380.089c-16.437,12.651 -37.317,20.225 -60.031,20.225c-52.927,-0 -95.897,-41.125 -95.897,-91.78c0,-50.654 42.97,-91.779 95.897,-91.779c52.927,-0 95.898,41.125 95.898,91.779c-0,7.79 -1.017,15.355 -2.929,22.58c-18.037,260.588 -230.769,466.558 -490.177,466.558c-271.219,0 -491.415,-225.153 -491.415,-502.479c-0,-277.326 220.196,-502.479 491.415,-502.479c167.803,-0 316.074,86.185 404.75,217.59c1.903,2.169 3.038,4.9 3.038,7.865c-0,2.903 -1.088,5.582 -2.921,7.729l0,0.002l-0.002,0c-0.004,0.006 -0.009,0.011 -0.013,0.016l-0,-0.016l-231.13,0c-8.202,-5.511 -16.668,-10.659 -25.377,-15.422l219.193,-0Z" style="fill:#282b28;"/><path d="M851.462,468.982c-0.02,-0.216 -0.04,-0.433 -0.06,-0.65l10.441,0c0.012,0.129 0.024,0.258 0.035,0.387l3.507,-0c1.046,11.41 1.58,22.966 1.58,34.645c-0,207.897 -169.242,376.682 -377.701,376.682c-208.459,0 -377.701,-168.785 -377.701,-376.682c0,-207.896 169.242,-376.682 377.701,-376.682c96.503,0 184.602,36.173 251.396,95.652l-5.077,0c1.248,1.085 2.488,2.178 3.721,3.279l-5.499,0c0.733,0.642 1.463,1.287 2.19,1.935l-4.982,0c1.224,1.065 2.442,2.138 3.652,3.218l-15.602,0c-61.443,-51.355 -140.54,-82.277 -226.803,-82.277c-195.372,0 -353.99,158.618 -353.99,353.99c0,195.372 158.618,353.99 353.99,353.99c195.373,-0 353.99,-158.618 353.99,-353.99c0,-11.296 -0.53,-22.47 -1.567,-33.497l6.779,0Z" style="fill:#282b28;"/><path d="M871.535,400.414l8.366,15.506c2.309,4.279 0.71,9.627 -3.569,11.936l-44.995,24.276c-4.279,2.309 -9.627,0.71 -11.936,-3.569l-8.366,-15.506c-2.309,-4.279 -0.709,-9.628 3.57,-11.936l44.994,-24.277c4.279,-2.309 9.628,-0.709 11.936,3.57Z" style="fill:#666;"/><path d="M378.434,567.285l0.358,-17.695c0.099,-4.883 -3.785,-8.927 -8.668,-9.026l-53.182,-1.078c-4.883,-0.099 -8.928,3.785 -9.027,8.668l-0.358,17.695c-0.099,4.884 3.785,8.928 8.668,9.027l53.182,1.078c4.883,0.099 8.928,-3.785 9.027,-8.669Z" style="fill:#666;"/><circle cx="432.584" cy="586.744" r="26.9" style="fill:#282b28;"/><circle cx="767.224" cy="497.63" r="27" style="fill:#282b28;"/><clipPath id="_clip1"><circle cx="767.224" cy="497.63" r="27"/></clipPath><g clip-path="url(#_clip1)"><path d="M453.398,551.032l-0,9.745c-0,2.689 -2.184,4.872 -4.873,4.872l-23.872,0c-2.69,0 -4.873,-2.183 -4.873,-4.872l0,-9.745c0,-2.689 2.183,-4.872 4.873,-4.872l23.872,-0c2.689,-0 4.873,2.183 4.873,4.872Z" style="fill:#c2c0bf;"/></g><path d="M449.617,557.539l2.198,7.245c0.606,1.999 -0.525,4.115 -2.524,4.721l-16.725,5.074c-2,0.607 -4.115,-0.524 -4.722,-2.523l-2.198,-7.245c-0.606,-2 0.525,-4.115 2.524,-4.722l16.725,-5.074c2,-0.606 4.115,0.525 4.722,2.524Z" style="fill:#282b28;"/><path d="M765.616,467.939l2.198,7.245c0.607,1.999 -0.524,4.115 -2.523,4.721l-16.726,5.074c-1.999,0.607 -4.115,-0.524 -4.721,-2.523l-2.198,-7.245c-0.606,-2 0.524,-4.115 2.524,-4.722l16.725,-5.074c1.999,-0.606 4.115,0.525 4.721,2.524Z" style="fill:#282b28;"/><path d="M830.252,425.011l4.67,17.448c1.289,4.815 -1.573,9.771 -6.388,11.06l-455.847,122.022c-4.814,1.289 -9.77,-1.574 -11.059,-6.389l-4.67,-17.448c-1.289,-4.815 1.574,-9.77 6.388,-11.059l455.847,-122.022c4.815,-1.289 9.77,1.574 11.059,6.388Z" style="fill:#666;"/></svg>