<?xml version="1.0" encoding="UTF-8" standalone="no"?><!DOCTYPE svg PUBLIC "-//W3C//DTD SVG 1.1//EN" "http://www.w3.org/Graphics/SVG/1.1/DTD/svg11.dtd"><svg width="100%" height="100%" viewBox="0 0 985 1005" version="1.1" xmlns="http://www.w3.org/2000/svg" xmlns:xlink="http://www.w3.org/1999/xlink" xml:space="preserve" xmlns:serif="http://www.serif.com/" style="fill-rule:evenodd;clip-rule:evenodd;stroke-linejoin:round;stroke-miterlimit:2;"><path d="M955.388,533.383c-15.927,242.248 -217.724,434.081 -463.973,434.081c-256.632,0 -464.985,-208.353 -464.985,-464.985c0,-256.632 208.353,-464.985 464.985,-464.985c149.407,-0 282.451,70.619 367.544,180.27l-219.199,-0c-44.124,-24.854 -94.659,-38.973 -148.345,-38.973c-172.068,0 -311.766,145.04 -311.766,323.688c-0,178.648 139.698,323.688 311.766,323.688c162.03,-0 295.356,-128.609 310.361,-292.784l153.612,-0Z" style="fill:#ff4a1c;"/><path d="M981.592,538.4c-18.037,260.588 -230.769,466.558 -490.177,466.558c-271.219,0 -491.415,-225.153 -491.415,-502.479c0,-277.326 220.196,-502.479 491.415,-502.479c167.877,0 316.205,86.262 404.867,217.764l-37.323,-0c-85.093,-109.651 -218.137,-180.27 -367.544,-180.27c-256.632,-0 -464.985,208.353 -464.985,464.985c0,256.632 208.353,464.985 464.985,464.985c227.641,0 417.294,-163.937 457.239,-380.089c-16.437,12.651 -37.317,20.225 -60.031,20.225c-52.927,-0 -95.897,-41.125 -95.897,-91.78c0,-50.654 42.97,-91.779 95.897,-91.779c52.927,-0 95.898,41.125 95.898,91.779c-0,7.79 -1.017,15.355 -2.929,22.58Z" style="fill:#282b28;"/><circle cx="435.533" cy="585.761" r="26.9" style="fill:#c2c0bf;"/><path d="M453.398,551.032l-0,9.745c-0,2.689 -2.184,4.872 -4.873,4.872l-23.872,0c-2.69,0 -4.873,-2.183 -4.873,-4.872l0,-9.745c0,-2.689 2.183,-4.872 4.873,-4.872l23.872,-0c2.689,-0 4.873,2.183 4.873,4.872Z" style="fill:#c2c0bf;"/><path d="M871.535,400.414l8.366,15.506c2.309,4.279 0.71,9.627 -3.569,11.936l-44.995,24.276c-4.279,2.309 -9.627,0.71 -11.936,-3.569l-8.366,-15.506c-2.309,-4.279 -0.709,-9.628 3.57,-11.936l44.994,-24.277c4.279,-2.309 9.628,-0.709 11.936,3.57Z" style="fill:#666;"/><path d="M378.434,567.285l0.358,-17.695c0.099,-4.883 -3.785,-8.927 -8.668,-9.026l-53.182,-1.078c-4.883,-0.099 -8.928,3.785 -9.027,8.668l-0.358,17.695c-0.099,4.884 3.785,8.928 8.668,9.027l53.182,1.078c4.883,0.099 8.928,-3.785 9.027,-8.669Z" style="fill:#666;"/><circle cx="767.224" cy="497.63" r="27" style="fill:#c1c1c1;"/><path d="M765.616,467.939l2.198,7.245c0.607,1.999 -0.524,4.115 -2.523,4.721l-16.726,5.074c-1.999,0.607 -4.115,-0.524 -4.721,-2.523l-2.198,-7.245c-0.606,-2 0.524,-4.115 2.524,-4.722l16.725,-5.074c1.999,-0.606 4.115,0.525 4.721,2.524Z" style="fill:#c2c0bf;"/><path d="M830.252,425.011l4.67,17.448c1.289,4.815 -1.573,9.771 -6.388,11.06l-455.847,122.022c-4.814,1.289 -9.77,-1.574 -11.059,-6.389l-4.67,-17.448c-1.289,-4.815 1.574,-9.77 6.388,-11.059l455.847,-122.022c4.815,-1.289 9.77,1.574 11.059,6.388Z" style="fill:#666;"/><path d="M639.76,217.764l256.522,-0l0,15.422l-231.145,0c-8.202,-5.511 -16.668,-10.659 -25.377,-15.422Z" style="fill:#282b28;"/></svg>